<mxfile host="Electron" agent="Mozilla/5.0 (Windows NT 10.0; Win64; x64) AppleWebKit/537.36 (KHTML, like Gecko) draw.io/26.1.1 Chrome/132.0.6834.210 Electron/34.3.3 Safari/537.36" version="26.1.1">
  <diagram name="Page-1" id="0783ab3e-0a74-02c8-0abd-f7b4e66b4bec">
    <mxGraphModel dx="1338" dy="820" grid="1" gridSize="10" guides="1" tooltips="1" connect="1" arrows="1" fold="1" page="1" pageScale="1" pageWidth="850" pageHeight="1100" background="none" math="0" shadow="0">
      <root>
        <mxCell id="0" />
        <mxCell id="1" parent="0" />
        <mxCell id="HPWhJ2CNh0VDsfjqtDM2-3" value="" style="ellipse;fillColor=strokeColor;html=1;" parent="1" vertex="1">
          <mxGeometry x="305" y="40" width="30" height="30" as="geometry" />
        </mxCell>
        <mxCell id="HPWhJ2CNh0VDsfjqtDM2-4" value="" style="html=1;verticalAlign=bottom;labelBackgroundColor=none;endArrow=block;endFill=1;rounded=0;exitX=0.5;exitY=1;exitDx=0;exitDy=0;entryX=0.5;entryY=0;entryDx=0;entryDy=0;" parent="1" source="HPWhJ2CNh0VDsfjqtDM2-3" target="HPWhJ2CNh0VDsfjqtDM2-5" edge="1">
          <mxGeometry width="160" relative="1" as="geometry">
            <mxPoint x="290" y="420" as="sourcePoint" />
            <mxPoint x="315" y="120" as="targetPoint" />
          </mxGeometry>
        </mxCell>
        <mxCell id="HPWhJ2CNh0VDsfjqtDM2-5" value="create a task" style="html=1;dashed=0;rounded=1;absoluteArcSize=1;arcSize=20;verticalAlign=middle;align=center;whiteSpace=wrap;" parent="1" vertex="1">
          <mxGeometry x="240" y="120" width="160" height="50" as="geometry" />
        </mxCell>
        <mxCell id="HPWhJ2CNh0VDsfjqtDM2-6" value="*" style="text;resizeWidth=0;resizeHeight=0;points=[];part=1;verticalAlign=middle;align=center;html=1;" parent="HPWhJ2CNh0VDsfjqtDM2-5" vertex="1">
          <mxGeometry x="1" y="0.5" width="20" height="20" relative="1" as="geometry">
            <mxPoint x="-20" y="-10" as="offset" />
          </mxGeometry>
        </mxCell>
        <mxCell id="HPWhJ2CNh0VDsfjqtDM2-10" value="" style="html=1;verticalAlign=bottom;labelBackgroundColor=none;endArrow=block;endFill=1;rounded=0;exitX=0.5;exitY=1;exitDx=0;exitDy=0;entryX=0.5;entryY=0;entryDx=0;entryDy=0;" parent="1" source="HPWhJ2CNh0VDsfjqtDM2-5" target="Jq5KpaDC2PTblpr1mt9l-1" edge="1">
          <mxGeometry width="160" relative="1" as="geometry">
            <mxPoint x="320" y="280" as="sourcePoint" />
            <mxPoint x="210" y="520" as="targetPoint" />
          </mxGeometry>
        </mxCell>
        <mxCell id="HPWhJ2CNh0VDsfjqtDM2-11" value="display options" style="html=1;dashed=0;rounded=1;absoluteArcSize=1;arcSize=20;verticalAlign=middle;align=center;whiteSpace=wrap;" parent="1" vertex="1">
          <mxGeometry x="240" y="350" width="160" height="50" as="geometry" />
        </mxCell>
        <mxCell id="HPWhJ2CNh0VDsfjqtDM2-20" style="edgeStyle=orthogonalEdgeStyle;rounded=0;orthogonalLoop=1;jettySize=auto;html=1;exitX=0;exitY=0.5;exitDx=0;exitDy=0;" parent="1" source="HPWhJ2CNh0VDsfjqtDM2-13" target="HPWhJ2CNh0VDsfjqtDM2-16" edge="1">
          <mxGeometry relative="1" as="geometry" />
        </mxCell>
        <mxCell id="HPWhJ2CNh0VDsfjqtDM2-21" value="No" style="edgeLabel;html=1;align=center;verticalAlign=middle;resizable=0;points=[];" parent="HPWhJ2CNh0VDsfjqtDM2-20" vertex="1" connectable="0">
          <mxGeometry x="0.1913" y="-1" relative="1" as="geometry">
            <mxPoint as="offset" />
          </mxGeometry>
        </mxCell>
        <mxCell id="HPWhJ2CNh0VDsfjqtDM2-13" value="" style="rhombus;" parent="1" vertex="1">
          <mxGeometry x="305" y="440" width="30" height="30" as="geometry" />
        </mxCell>
        <mxCell id="HPWhJ2CNh0VDsfjqtDM2-14" value="" style="html=1;verticalAlign=bottom;labelBackgroundColor=none;endArrow=block;endFill=1;rounded=0;exitX=0.5;exitY=1;exitDx=0;exitDy=0;entryX=0;entryY=0.5;entryDx=0;entryDy=0;edgeStyle=orthogonalEdgeStyle;" parent="1" source="HPWhJ2CNh0VDsfjqtDM2-13" target="HPWhJ2CNh0VDsfjqtDM2-18" edge="1">
          <mxGeometry width="160" relative="1" as="geometry">
            <mxPoint x="330" y="270" as="sourcePoint" />
            <mxPoint x="320" y="530" as="targetPoint" />
          </mxGeometry>
        </mxCell>
        <mxCell id="HPWhJ2CNh0VDsfjqtDM2-22" value="Yes" style="edgeLabel;html=1;align=center;verticalAlign=middle;resizable=0;points=[];" parent="HPWhJ2CNh0VDsfjqtDM2-14" vertex="1" connectable="0">
          <mxGeometry x="-0.5862" y="3" relative="1" as="geometry">
            <mxPoint as="offset" />
          </mxGeometry>
        </mxCell>
        <mxCell id="HPWhJ2CNh0VDsfjqtDM2-15" value="" style="html=1;verticalAlign=bottom;labelBackgroundColor=none;endArrow=block;endFill=1;rounded=0;entryX=0.5;entryY=0;entryDx=0;entryDy=0;exitX=0.5;exitY=1;exitDx=0;exitDy=0;" parent="1" source="HPWhJ2CNh0VDsfjqtDM2-11" target="HPWhJ2CNh0VDsfjqtDM2-13" edge="1">
          <mxGeometry width="160" relative="1" as="geometry">
            <mxPoint x="400" y="290" as="sourcePoint" />
            <mxPoint x="340" y="360" as="targetPoint" />
          </mxGeometry>
        </mxCell>
        <mxCell id="HPWhJ2CNh0VDsfjqtDM2-16" value="cancel" style="html=1;dashed=0;rounded=1;absoluteArcSize=1;arcSize=20;verticalAlign=middle;align=center;whiteSpace=wrap;" parent="1" vertex="1">
          <mxGeometry x="60" y="520" width="160" height="50" as="geometry" />
        </mxCell>
        <mxCell id="HPWhJ2CNh0VDsfjqtDM2-17" value="*" style="text;resizeWidth=0;resizeHeight=0;points=[];part=1;verticalAlign=middle;align=center;html=1;" parent="HPWhJ2CNh0VDsfjqtDM2-16" vertex="1">
          <mxGeometry x="1" y="0.5" width="20" height="20" relative="1" as="geometry">
            <mxPoint x="-20" y="-10" as="offset" />
          </mxGeometry>
        </mxCell>
        <mxCell id="HPWhJ2CNh0VDsfjqtDM2-25" style="edgeStyle=orthogonalEdgeStyle;rounded=0;orthogonalLoop=1;jettySize=auto;html=1;exitX=0.5;exitY=1;exitDx=0;exitDy=0;entryX=0.5;entryY=0;entryDx=0;entryDy=0;" parent="1" source="HPWhJ2CNh0VDsfjqtDM2-18" target="HPWhJ2CNh0VDsfjqtDM2-23" edge="1">
          <mxGeometry relative="1" as="geometry" />
        </mxCell>
        <mxCell id="HPWhJ2CNh0VDsfjqtDM2-18" value="add the task in the repository" style="html=1;dashed=0;rounded=1;absoluteArcSize=1;arcSize=20;verticalAlign=middle;align=center;whiteSpace=wrap;" parent="1" vertex="1">
          <mxGeometry x="390" y="520" width="160" height="50" as="geometry" />
        </mxCell>
        <mxCell id="HPWhJ2CNh0VDsfjqtDM2-19" value="*" style="text;resizeWidth=0;resizeHeight=0;points=[];part=1;verticalAlign=middle;align=center;html=1;" parent="HPWhJ2CNh0VDsfjqtDM2-18" vertex="1">
          <mxGeometry x="1" y="0.5" width="20" height="20" relative="1" as="geometry">
            <mxPoint x="-20" y="-10" as="offset" />
          </mxGeometry>
        </mxCell>
        <mxCell id="HPWhJ2CNh0VDsfjqtDM2-27" style="edgeStyle=orthogonalEdgeStyle;rounded=0;orthogonalLoop=1;jettySize=auto;html=1;exitX=0.5;exitY=1;exitDx=0;exitDy=0;entryX=0.5;entryY=0;entryDx=0;entryDy=0;" parent="1" source="HPWhJ2CNh0VDsfjqtDM2-23" target="HPWhJ2CNh0VDsfjqtDM2-26" edge="1">
          <mxGeometry relative="1" as="geometry" />
        </mxCell>
        <mxCell id="HPWhJ2CNh0VDsfjqtDM2-23" value="notify the user" style="html=1;dashed=0;rounded=1;absoluteArcSize=1;arcSize=20;verticalAlign=middle;align=center;whiteSpace=wrap;" parent="1" vertex="1">
          <mxGeometry x="390" y="620" width="160" height="50" as="geometry" />
        </mxCell>
        <mxCell id="HPWhJ2CNh0VDsfjqtDM2-24" value="*" style="text;resizeWidth=0;resizeHeight=0;points=[];part=1;verticalAlign=middle;align=center;html=1;" parent="HPWhJ2CNh0VDsfjqtDM2-23" vertex="1">
          <mxGeometry x="1" y="0.5" width="20" height="20" relative="1" as="geometry">
            <mxPoint x="-20" y="-10" as="offset" />
          </mxGeometry>
        </mxCell>
        <mxCell id="HPWhJ2CNh0VDsfjqtDM2-26" value="" style="ellipse;html=1;shape=endState;fillColor=strokeColor;" parent="1" vertex="1">
          <mxGeometry x="455" y="720" width="30" height="30" as="geometry" />
        </mxCell>
        <mxCell id="Jq5KpaDC2PTblpr1mt9l-3" style="edgeStyle=orthogonalEdgeStyle;rounded=0;orthogonalLoop=1;jettySize=auto;html=1;entryX=0.5;entryY=0;entryDx=0;entryDy=0;" parent="1" source="Jq5KpaDC2PTblpr1mt9l-1" target="HPWhJ2CNh0VDsfjqtDM2-11" edge="1">
          <mxGeometry relative="1" as="geometry" />
        </mxCell>
        <mxCell id="Jq5KpaDC2PTblpr1mt9l-1" value="fill in the information" style="html=1;dashed=0;rounded=1;absoluteArcSize=1;arcSize=20;verticalAlign=middle;align=center;whiteSpace=wrap;" parent="1" vertex="1">
          <mxGeometry x="240" y="220" width="160" height="50" as="geometry" />
        </mxCell>
        <mxCell id="Jq5KpaDC2PTblpr1mt9l-2" value="*" style="text;resizeWidth=0;resizeHeight=0;points=[];part=1;verticalAlign=middle;align=center;html=1;" parent="Jq5KpaDC2PTblpr1mt9l-1" vertex="1">
          <mxGeometry x="1" y="0.5" width="20" height="20" relative="1" as="geometry">
            <mxPoint x="-20" y="-10" as="offset" />
          </mxGeometry>
        </mxCell>
        <mxCell id="D1TeBV5ef_I8c8ub25cy-1" value="&lt;div style=&quot;text-align: center;&quot;&gt;&lt;span style=&quot;background-color: transparent; color: light-dark(rgb(0, 0, 0), rgb(255, 255, 255));&quot;&gt;validate creation ?&lt;/span&gt;&lt;/div&gt;" style="text;whiteSpace=wrap;html=1;" vertex="1" parent="1">
          <mxGeometry x="350" y="435" width="210" height="40" as="geometry" />
        </mxCell>
      </root>
    </mxGraphModel>
  </diagram>
</mxfile>
